<svg width="36" height="88" viewBox="0 0 36 88" fill="none" xmlns="http://www.w3.org/2000/svg">
<path d="M33.3905 76.0551C33.3905 79.1627 31.7166 82.0137 28.9358 84.1048C26.1547 86.1961 22.29 87.5043 18 87.5043C13.71 87.5043 9.84524 86.1961 7.0642 84.1048C4.28335 82.0137 2.60947 79.1627 2.60947 76.0551C2.60947 72.9475 4.28335 70.0965 7.0642 68.0054C9.84524 65.9142 13.71 64.606 18 64.606C22.29 64.606 26.1547 65.9142 28.9358 68.0054C31.7166 70.0965 33.3905 72.9475 33.3905 76.0551Z" fill="#987CDF" stroke="#2B2B2B"/>
<path d="M1.44736 6.75006H34.5526L33.7038 75.2585H2.29621L1.44736 6.75006Z" fill="#987CDF"/>
<path d="M34.5 7C34.5 7.77459 34.0853 8.57117 33.2231 9.3547C32.3621 10.1372 31.0981 10.864 29.5214 11.4845C26.3711 12.7241 22.0733 13.5 17.5526 13.5C13.0321 13.5 8.9631 12.7242 6.0429 11.4892C4.58182 10.8714 3.43171 10.1484 2.65431 9.37113C1.87888 8.59583 1.5 7.79502 1.5 7C1.5 6.20498 1.87888 5.40417 2.65431 4.62887C3.43171 3.8516 4.58182 3.12865 6.0429 2.51077C8.9631 1.27583 13.0321 0.5 17.5526 0.5C22.0733 0.5 26.3711 1.27587 29.5214 2.51552C31.0981 3.13599 32.3621 3.86276 33.2231 4.6453C34.0853 5.42883 34.5 6.22541 34.5 7Z" fill="white" stroke="#2B2B2B"/>
<path d="M1 7C1 7 2.275 21.3613 18 20.993C33.725 20.6248 35 7 35 7" stroke="#2B2B2B"/>
<path d="M33.5595 75.2585L34.5526 6.75006" stroke="#2B2B2B"/>
<path d="M2.44052 76.0551L1.44736 5.95343" stroke="#2B2B2B"/>
</svg>
