<svg width="34" height="94" viewBox="0 0 34 94" fill="none" xmlns="http://www.w3.org/2000/svg">
<rect x="0.5" y="16.9272" width="33" height="76.5728" fill="#B6A8F0" stroke="#2B2B2B"/>
<mask id="path-2-inside-1_1_22" fill="white">
<path d="M0.79071 3C0.79071 1.34315 2.13386 0 3.79071 0H30.2093C31.8662 0 33.2093 1.34315 33.2093 3V16.4272H0.79071V3Z"/>
</mask>
<path d="M0.79071 3C0.79071 1.34315 2.13386 0 3.79071 0H30.2093C31.8662 0 33.2093 1.34315 33.2093 3V16.4272H0.79071V3Z" fill="#F8F8F8"/>
<path d="M-0.20929 3C-0.20929 0.790861 1.58157 -1 3.79071 -1H30.2093C32.4185 -1 34.2093 0.790861 34.2093 3H32.2093C32.2093 1.89543 31.3139 1 30.2093 1H3.79071C2.68614 1 1.79071 1.89543 1.79071 3H-0.20929ZM33.2093 16.4272H0.79071H33.2093ZM-0.20929 16.4272V3C-0.20929 0.790861 1.58157 -1 3.79071 -1V1C2.68614 1 1.79071 1.89543 1.79071 3V16.4272H-0.20929ZM30.2093 -1C32.4185 -1 34.2093 0.790861 34.2093 3V16.4272H32.2093V3C32.2093 1.89543 31.3139 1 30.2093 1V-1Z" fill="#2B2B2B" mask="url(#path-2-inside-1_1_22)"/>
<rect x="10.2791" y="17.3398" width="15.0233" height="75.7476" fill="#F8F8F8"/>
<path d="M23 72.7224L12.05 72.7224L12.05 65.9724L13.97 65.9724L13.97 70.5174L16.43 70.5174L16.43 66.4974L18.35 66.4974L18.35 70.5174L21.08 70.5174L21.08 65.9724L23 65.9724L23 72.7224ZM23 63.9532L12.05 63.9532L12.05 60.4282C12.05 59.6482 12.185 58.9732 12.455 58.4032C12.725 57.8332 13.11 57.3932 13.61 57.0832C14.11 56.7632 14.7 56.6032 15.38 56.6032C16.09 56.6032 16.725 56.7782 17.285 57.1282C17.845 57.4682 18.25 57.9332 18.5 58.5232L23 56.4532L23 58.8982L18.86 60.6682L18.86 61.7182L23 61.7182L23 63.9532ZM16.91 61.7182L16.91 60.4282C16.91 59.9282 16.785 59.5432 16.535 59.2732C16.285 58.9932 15.935 58.8532 15.485 58.8532C15.015 58.8532 14.65 58.9932 14.39 59.2732C14.13 59.5432 14 59.9282 14 60.4282L14 61.7182L16.91 61.7182ZM23 55.5591L12.05 52.8741L12.05 50.0241L23 47.3091L23 49.6041L20.525 50.1291L20.525 52.7391L23 53.2641L23 55.5591ZM18.725 52.3641L18.725 50.5191L16.085 51.0441C15.705 51.1141 15.33 51.1891 14.96 51.2691C14.58 51.3391 14.285 51.3941 14.075 51.4341C14.285 51.4741 14.575 51.5291 14.945 51.5991C15.315 51.6591 15.69 51.7291 16.07 51.8091L18.725 52.3641ZM23.15 42.4399C23.15 43.2099 23.02 43.8799 22.76 44.4499C22.5 45.0199 22.135 45.4599 21.665 45.7699C21.195 46.0799 20.64 46.2349 20 46.2349L20 43.9849C20.37 43.9849 20.665 43.8449 20.885 43.5649C21.095 43.2749 21.2 42.8849 21.2 42.3949C21.2 41.9249 21.095 41.5599 20.885 41.2999C20.675 41.0299 20.385 40.8949 20.015 40.8949C19.695 40.8949 19.42 40.9949 19.19 41.1949C18.96 41.3949 18.805 41.6749 18.725 42.0349L18.47 43.1449C18.25 44.0749 17.845 44.7999 17.255 45.3199C16.655 45.8299 15.925 46.0849 15.065 46.0849C14.425 46.0849 13.87 45.9399 13.4 45.6499C12.92 45.3499 12.55 44.9299 12.29 44.3899C12.03 43.8499 11.9 43.2099 11.9 42.4699C11.9 41.3499 12.18 40.4649 12.74 39.8149C13.29 39.1549 14.035 38.8249 14.975 38.8249L14.975 41.0749C14.625 41.0749 14.35 41.1999 14.15 41.4499C13.95 41.6899 13.85 42.0399 13.85 42.4999C13.85 42.9299 13.95 43.2599 14.15 43.4899C14.34 43.7199 14.615 43.8349 14.975 43.8349C15.295 43.8349 15.57 43.7449 15.8 43.5649C16.02 43.3749 16.17 43.1099 16.25 42.7699L16.52 41.5999C16.74 40.6299 17.14 39.8949 17.72 39.3949C18.29 38.8949 19.02 38.6449 19.91 38.6449C20.55 38.6449 21.115 38.8049 21.605 39.1249C22.095 39.4349 22.475 39.8749 22.745 40.4449C23.015 41.0049 23.15 41.6699 23.15 42.4399ZM23 36.7458L12.05 36.7458L12.05 29.9958L13.97 29.9958L13.97 34.5408L16.43 34.5408L16.43 30.5208L18.35 30.5208L18.35 34.5408L21.08 34.5408L21.08 29.9958L23 29.9958L23 36.7458ZM23 27.9767L12.05 27.9767L12.05 24.4517C12.05 23.6717 12.185 22.9967 12.455 22.4267C12.725 21.8567 13.11 21.4167 13.61 21.1067C14.11 20.7867 14.7 20.6267 15.38 20.6267C16.09 20.6267 16.725 20.8017 17.285 21.1517C17.845 21.4917 18.25 21.9567 18.5 22.5467L23 20.4767L23 22.9217L18.86 24.6917L18.86 25.7417L23 25.7417L23 27.9767ZM16.91 25.7417L16.91 24.4517C16.91 23.9517 16.785 23.5667 16.535 23.2967C16.285 23.0167 15.935 22.8767 15.485 22.8767C15.015 22.8767 14.65 23.0167 14.39 23.2967C14.13 23.5667 14 23.9517 14 24.4517L14 25.7417L16.91 25.7417Z" fill="#2B2B2B"/>
</svg>
