<svg width="24" height="94" viewBox="0 0 24 94" fill="none" xmlns="http://www.w3.org/2000/svg">
<path d="M23 93.5001V37.1439H12H1V93.5001H23Z" fill="#B6A8F0"/>
<path fill-rule="evenodd" clip-rule="evenodd" d="M15.1341 14.1013H8.48021C1 37.1439 1 37.1439 1 37.1439H12H23C23 37.1439 23 37.1439 15.1341 14.1013Z" fill="#FFEFBD"/>
<path d="M12 1C11.2011 1 10 7.5 8.48021 14.1013H15.1341C13.5 7 12.7989 1 12 1Z" fill="#B6A8F0"/>
<path d="M1 37.1439V93.5001H23V37.1439M1 37.1439C1 37.1439 1 37.1439 8.48021 14.1013M1 37.1439H12H23M23 37.1439C23 37.1439 23 37.1439 15.1341 14.1013M8.48021 14.1013C10 7.5 11.2011 1 12 1C12.7989 1 13.5 7 15.1341 14.1013M8.48021 14.1013H15.1341" stroke="#2B2B2B"/>
</svg>
